<svg   viewBox="0 0 434 84" fill="none" xmlns="http://www.w3.org/2000/svg">
<g clip-path="url(#clip0_299_5069)">
<path d="M37.1143 33.2531V45.6065H54.5013C54.4263 48.6648 53.6312 51.4084 52.101 53.8221C50.5708 56.2358 48.4556 58.1398 45.7553 59.519C43.055 60.9133 39.9646 61.6029 36.4692 61.6029C31.7137 61.6029 27.8882 60.4485 25.0079 58.1398C22.1276 55.831 20.0423 52.7426 18.7672 48.8597C17.492 44.9918 16.8469 40.4942 16.8469 35.382C16.8469 30.2697 17.522 25.967 18.8722 22.0541C20.2223 18.1412 22.3376 15.0378 25.2179 12.7291C25.968 12.1294 26.7631 11.6047 27.6182 11.1699H6.37574C5.64065 12.3243 4.98057 13.5237 4.3655 14.798C1.45517 20.8397 0 27.7061 0 35.382C0 43.0578 1.36516 49.9092 4.09547 55.9509C6.84079 61.9927 10.8162 66.7152 16.0519 70.1333C21.2725 73.5365 27.4382 75.2456 34.549 75.2456C40.0246 75.2456 44.6301 74.2411 48.3656 72.2022C52.101 70.1783 55.0714 67.2849 57.2766 63.5219H57.4866L59.7369 73.5365H71.4682V33.2531H37.1143ZM66.6077 11.1699H45.6803C46.5204 11.5897 47.2705 12.0994 47.9455 12.6691C50.6158 14.9479 52.401 18.0362 53.3311 21.9491H70.2831C69.668 18.0362 68.4529 14.4382 66.6077 11.1699Z" fill="#FF5D48"/>
<path d="M137.911 63.5054C137.326 65.3794 136.291 67.3284 134.821 69.3823C133.936 70.6416 132.811 71.781 131.445 72.8154H148.727C150.393 70.0269 151.683 66.9236 152.613 63.5054H137.911ZM153.498 47.3441C153.498 39.6082 152.118 32.8768 149.387 27.1499C146.642 21.423 142.577 16.9853 137.176 13.852C131.79 10.7187 125.37 9.14453 117.914 9.14453C110.458 9.14453 103.812 10.7936 98.2165 14.0769C92.6359 17.3601 88.3454 22.0076 85.36 28.0344C82.3597 34.0612 80.8745 40.9875 80.8745 48.8133C80.8745 56.6391 82.3447 63.4454 85.285 69.4572C85.8551 70.6266 86.4702 71.751 87.1452 72.8154H104.952C101.997 70.6116 99.7467 67.7631 98.2165 64.315C96.6413 60.7619 95.8162 56.9239 95.7412 52.7862H153.348C153.453 51.9016 153.498 50.0876 153.498 47.3441ZM95.7862 41.4672C95.9963 37.8691 96.9114 34.5859 98.5165 31.6325C100.377 28.1993 102.972 25.5607 106.302 23.7017C109.633 21.8427 113.368 20.8982 117.479 20.8982C121.589 20.8982 125.265 21.7828 128.505 23.5518C131.745 25.3059 134.191 27.7646 135.856 30.8979C137.521 34.0312 138.361 37.5543 138.361 41.4672H95.7862Z" fill="#FF5D48"/>
<path d="M162.754 11.1687V72.8156H177.171V11.1687H162.754ZM220.166 15.3514C215.515 11.0937 209.514 8.96484 202.163 8.96484C196.178 8.96484 191.152 10.0443 187.087 12.1881C183.021 14.347 179.811 17.1355 177.456 20.5686H172.025V40.1032H177.171C177.171 36.3852 177.996 33.1019 179.661 30.2684C181.326 27.42 183.711 25.2011 186.802 23.582C189.877 21.9629 193.432 21.1533 197.453 21.1533C202.643 21.1533 206.469 22.6675 208.929 25.7109C211.375 28.7393 212.605 32.862 212.605 38.0493V72.8156H227.156V34.2263C227.156 25.9058 224.831 19.6091 220.166 15.3514Z" fill="#FF5D48"/>
<path d="M308.6 33.8828C308.6 26.1469 307.22 19.4155 304.475 13.6886C304.055 12.819 303.605 11.9795 303.125 11.1699H285.348C287.748 12.7891 289.608 14.8879 290.958 17.4366C292.624 20.5699 293.464 24.093 293.464 28.0059H250.889C251.099 24.4078 252.014 21.1246 253.619 18.1712C255.194 15.2627 257.294 12.939 259.92 11.1699H242.383C241.693 12.2493 241.048 13.3887 240.463 14.5731C237.462 20.5999 235.977 27.5262 235.977 35.352C235.977 43.1778 237.447 49.9841 240.388 55.9959C243.328 62.0227 247.558 66.7302 253.094 70.1033C258.63 73.4915 265.275 75.1706 273.016 75.1706C282.422 75.1706 290.043 72.8919 295.879 68.3493C301.715 63.7917 305.66 57.69 307.715 50.0441H293.014C292.429 51.9181 291.393 53.867 289.923 55.9209C288.453 57.9898 286.353 59.7439 283.608 61.2131C280.862 62.6823 277.382 63.4169 273.166 63.4169C268.366 63.4169 264.27 62.2775 260.895 59.9688C257.505 57.675 254.984 54.6316 253.319 50.8537C251.744 47.3006 250.919 43.4626 250.844 39.3248H308.45C308.555 38.4403 308.6 36.6263 308.6 33.8828Z" fill="#FF5D48"/>
<path d="M317.856 11.1694V72.8164H332.273V11.1694H317.856ZM352.705 9.40039C347.905 9.40039 343.854 10.7946 340.569 13.5832C337.284 16.3866 334.613 20.3295 332.558 25.4118H321.982L332.273 47.3001C332.273 42.6076 333.218 38.4248 335.138 34.7518C337.044 31.0638 339.714 28.2003 343.149 26.1464C346.57 24.0925 350.395 23.0581 354.611 23.0581C356.081 23.163 357.746 23.3579 359.606 23.6578V9.83516C357.551 9.55031 355.256 9.40039 352.705 9.40039Z" fill="#FF5D48"/>
<path d="M429.44 27.9142C426.409 21.9324 422.074 17.2549 416.433 13.8817C410.792 10.5085 404.207 8.81445 396.661 8.81445C389.115 8.81445 382.229 10.4786 376.588 13.8068C370.963 17.135 366.612 21.8425 363.582 27.9142C360.537 33.986 359.021 40.8973 359.021 48.6331C359.021 56.369 360.537 63.2653 363.582 69.337C364.182 70.5514 364.842 71.7058 365.562 72.8152H383.984C382.394 71.7058 380.984 70.3265 379.754 68.6774C375.928 63.5351 374.023 56.8487 374.023 48.6331C374.023 43.236 374.848 38.4686 376.513 34.3008C378.179 30.133 380.714 26.8648 384.089 24.4661C387.48 22.0674 391.665 20.853 396.661 20.853C403.907 20.853 409.472 23.4316 413.343 28.5739C417.213 33.7161 419.148 40.3576 419.148 48.4832C419.148 53.8653 418.293 58.6627 416.583 62.8755C414.858 67.0882 412.338 70.4015 409.007 72.8002C408.992 72.8002 408.992 72.8152 408.977 72.8152H427.399C428.134 71.6908 428.81 70.5064 429.44 69.2621C432.485 63.2503 434 56.324 434 48.4832C434 40.6424 432.485 33.881 429.44 27.9142Z" fill="#FF5D48"/>
<path d="M45.6954 0H27.6333V11.169H45.6954V0Z" fill="#FF5D48"/>
<path d="M131.445 72.8301H104.952V83.9991H131.445V72.8301Z" fill="#FF5D48"/>
<path d="M409.007 72.8301H383.984V83.9991H409.007V72.8301Z" fill="#FF5D48"/>
<path d="M285.348 0H259.92V11.169H285.348V0Z" fill="#FF5D48"/>
</g>
<defs>
<clipPath id="clip0_299_5069">
<rect width="434" height="84" fill="white"/>
</clipPath>
</defs>
</svg>
